<?xml version="1.0" standalone="no"?>
<!DOCTYPE svg PUBLIC "-//W3C//DTD SVG 20010904//EN"
 "http://www.w3.org/TR/2001/REC-SVG-20010904/DTD/svg10.dtd">
<svg version="1.0" xmlns="http://www.w3.org/2000/svg"
 width="512.000000pt" height="512.000000pt" viewBox="0 0 512.000000 512.000000"
 preserveAspectRatio="xMidYMid meet">

<g transform="translate(0.000000,512.000000) scale(0.100000,-0.100000)"
fill="#ffffff" stroke="none">
<path d="M2065 4468 c-16 -6 -48 -23 -70 -39 -22 -15 -421 -409 -887 -876
-617 -618 -851 -859 -864 -888 -27 -63 -23 -159 8 -220 20 -38 238 -261 890
-911 788 -786 867 -863 912 -878 177 -58 346 61 346 243 0 44 -7 81 -21 111
-15 34 -167 192 -642 668 l-622 622 1775 0 c1177 0 1787 4 1812 10 66 19 130
70 161 130 26 49 28 63 25 131 -2 63 -8 84 -33 124 -35 57 -91 99 -152 114
-29 8 -592 11 -1815 11 l-1773 0 622 623 c475 475 627 633 642 667 47 103 15
243 -69 310 -69 55 -170 75 -245 48z"/>
</g>
</svg>
