<svg width="25" height="24" viewBox="0 0 25 24" fill="none" xmlns="http://www.w3.org/2000/svg">
<path d="M5.55556 8V5.71429C5.55556 4.19876 6.2872 2.74531 7.58954 1.67368C8.89187 0.602039 10.6582 0 12.5 0C14.3418 0 16.1081 0.602039 17.4105 1.67368C18.7128 2.74531 19.4444 4.19876 19.4444 5.71429V8H23.6111C23.9795 8 24.3327 8.12041 24.5932 8.33474C24.8537 8.54906 25 8.83975 25 9.14286V22.8571C25 23.1602 24.8537 23.4509 24.5932 23.6653C24.3327 23.8796 23.9795 24 23.6111 24H1.38889C1.02053 24 0.667263 23.8796 0.406796 23.6653C0.146329 23.4509 0 23.1602 0 22.8571V9.14286C0 8.83975 0.146329 8.54906 0.406796 8.33474C0.667263 8.12041 1.02053 8 1.38889 8H5.55556ZM5.55556 10.2857H2.77778V21.7143H22.2222V10.2857H19.4444V12.5714H16.6667V10.2857H8.33333V12.5714H5.55556V10.2857ZM8.33333 8H16.6667V5.71429C16.6667 4.80497 16.2277 3.9329 15.4463 3.28992C14.6649 2.64694 13.6051 2.28571 12.5 2.28571C11.3949 2.28571 10.3351 2.64694 9.55372 3.28992C8.77232 3.9329 8.33333 4.80497 8.33333 5.71429V8Z" fill="#FFFAD5"/>
</svg>
