<?xml version="1.0" encoding="UTF-8"?>
<svg id="Layer_2" data-name="Layer 2" xmlns="http://www.w3.org/2000/svg" viewBox="0 0 368.42 134.26">
  <defs>
    <style>
      .cls-1 {
        fill: #231f20;
      }
    </style>
  </defs>
  <g id="Layer_1-2" data-name="Layer 1">
    <g>
      <path class="cls-1" d="m0,59.25V16.93h3.35v-8.46h3.35V0h10.05v8.46h3.35v8.46h3.35v42.32h-3.35v8.46h-3.35v8.46H6.7v-8.46h-3.35v-8.46H0Zm6.7,0h3.35v8.46h3.35v-8.46h3.35V16.93h-3.35v-8.46h-3.35v8.46h-3.35v42.32Z"/>
      <path class="cls-1" d="m26.79,76.18v-8.46h3.35V8.46h-3.35V0h20.1v8.46h3.35v25.39h-3.35v16.93h3.35v16.93h3.35v8.46h-10.05v-25.39h-3.35v-8.46h-3.35v33.86h-10.05Zm10.05-42.32h6.7V8.46h-6.7v25.39Z"/>
      <path class="cls-1" d="m53.59,76.18v-8.46h3.35V8.46h-3.35V0h16.75v8.46h3.35v8.46h3.35v42.32h-3.35v8.46h-3.35v8.46h-16.75Zm10.05-8.46h3.35v-8.46h3.35V16.93h-3.35v-8.46h-3.35v59.25Z"/>
      <path class="cls-1" d="m80.38,76.18v-8.46h3.35V8.46h-3.35V0h23.44v25.39h-3.35v-8.46h-3.35v-8.46h-6.7v25.39h3.35v-8.46h3.35v25.39h-3.35v-8.46h-3.35v25.39h6.7v-8.46h3.35v-8.46h3.35v25.39h-23.44Z"/>
      <path class="cls-1" d="m107.17,76.18v-8.46h3.35V8.46h-3.35V0h20.1v8.46h3.35v25.39h-3.35v16.93h3.35v16.93h3.35v8.46h-10.05v-25.39h-3.35v-8.46h-3.35v33.86h-10.05Zm10.05-42.32h6.7V8.46h-6.7v25.39Z"/>
      <path class="cls-1" d="m146.25,67.72v-16.93h3.35v-8.46h3.35v-8.46h3.35v-8.46h3.35v-8.46h3.35v-8.46h3.35V0h3.35v16.93h-3.35v8.46h-3.35v8.46h-3.35v8.46h-3.35v8.46h-3.35v8.46h-3.35v8.46h-3.35Z"/>
      <path class="cls-1" d="m180.87,76.18v-8.46h3.35V8.46h-3.35V0h20.1v8.46h3.35v25.39h-3.35v8.46h-10.05v25.39h3.35v8.46h-13.4Zm10.05-42.32h6.7V8.46h-6.7v25.39Z"/>
      <path class="cls-1" d="m207.66,76.18V25.39h3.35v-8.46h3.35v-8.46h3.35V0h3.35v8.46h3.35v8.46h3.35v8.46h3.35v50.79h-6.7v-25.39h-10.05v25.39h-6.7Zm6.7-33.86h10.05v-16.93h-3.35v-8.46h-3.35v8.46h-3.35v16.93Z"/>
      <path class="cls-1" d="m234.45,0h6.7v16.93h3.35v8.46h6.7v-8.46h3.35V0h6.7v16.93h-3.35v8.46h-3.35v8.46h-3.35v33.86h3.35v8.46h-13.4v-8.46h3.35v-33.86h-3.35v-8.46h-3.35v-8.46h-3.35V0Z"/>
      <path class="cls-1" d="m261.25,76.18V0h6.7v8.46h3.35v8.46h3.35v-8.46h3.35V0h6.7v76.18h-6.7V25.39h-3.35v8.46h-3.35v-8.46h-3.35v50.79h-6.7Z"/>
      <path class="cls-1" d="m288.04,76.18v-8.46h3.35V8.46h-3.35V0h23.44v25.39h-3.35v-8.46h-3.35v-8.46h-6.7v25.39h3.35v-8.46h3.35v25.39h-3.35v-8.46h-3.35v25.39h6.7v-8.46h3.35v-8.46h3.35v25.39h-23.44Z"/>
      <path class="cls-1" d="m314.83,76.18V0h6.7v8.46h3.35v8.46h3.35v8.46h3.35V0h6.7v76.18h-6.7v-25.39h-3.35v-8.46h-3.35v-8.46h-3.35v42.32h-6.7Z"/>
      <path class="cls-1" d="m341.63,0h26.79v16.93h-3.35v-8.46h-6.7v59.25h3.35v8.46h-13.4v-8.46h3.35V8.46h-6.7v8.46h-3.35V0Z"/>
    </g>
    <rect class="cls-1" x="12.15" y="91.84" width="340.74" height="4"/>
    <g>
      <path class="cls-1" d="m20.03,118.58v-1.26h1.26v-8.8h-1.26v-1.26h7.54v1.26h1.26v3.77h-1.26v2.51h1.26v2.51h1.26v1.26h-3.77v-3.77h-1.26v-1.26h-1.26v5.03h-3.77Zm3.77-6.29h2.51v-3.77h-2.51v3.77Z"/>
      <path class="cls-1" d="m28.07,117.33v-6.29h2.51v6.29h2.51v1.26h-3.77v-1.26h-1.26Zm5.03,0v-6.29h2.51v6.29h1.26v1.26h-2.51v-1.26h-1.26Z"/>
      <path class="cls-1" d="m36.12,117.33v-3.77h1.26v-1.26h1.26v-1.26h2.51v-2.51h-1.26v-1.26h3.77v10.06h1.26v1.26h-2.51v-1.26h-1.26v-5.03h-1.26v1.26h-1.26v3.77h2.51v1.26h-3.77v-1.26h-1.26Z"/>
      <path class="cls-1" d="m44.16,118.58v-1.26h1.26v-8.8h-1.26v-1.26h3.77v6.29h1.26v-1.26h1.26v-1.26h2.51v1.26h-1.26v1.26h-1.26v1.26h1.26v1.26h1.26v2.51h-2.51v-2.51h-1.26v-1.26h-1.26v3.77h-3.77Z"/>
      <path class="cls-1" d="m54.72,118.58v-1.26h1.26v-5.03h-1.26v-1.26h3.77v6.29h1.26v1.26h-5.03Zm1.26-11.31h2.51v2.51h-2.51v-2.51Z"/>
      <path class="cls-1" d="m60.25,117.33v-3.77h1.26v-1.26h1.26v-1.26h2.51v-2.51h-1.26v-1.26h3.77v10.06h1.26v1.26h-2.51v-1.26h-1.26v-5.03h-1.26v1.26h-1.26v3.77h2.51v1.26h-3.77v-1.26h-1.26Z"/>
      <path class="cls-1" d="m68.3,117.33v-1.26h2.51v1.26h3.77v-1.26h-2.51v-1.26h-2.51v-1.26h-1.26v-1.26h1.26v-1.26h6.29v1.26h1.26v1.26h-2.51v-1.26h-3.77v1.26h2.51v1.26h2.51v1.26h1.26v1.26h-1.26v1.26h-6.29v-1.26h-1.26Z"/>
      <path class="cls-1" d="m78.86,112.3v-3.77h1.26v-1.26h2.51v1.26h1.26v3.77h-1.26v2.51h-2.51v-2.51h-1.26Zm1.26,6.29v-2.51h2.51v2.51h-2.51Z"/>
      <path class="cls-1" d="m93.69,106.01h2.51v1.26h-1.26v2.51h-2.51v-2.51h1.26v-1.26Zm5.03,0h2.51v1.26h-1.26v2.51h-2.51v-2.51h1.26v-1.26Z"/>
      <path class="cls-1" d="m100.48,118.58v-1.26h1.26v-8.8h-1.26v-1.26h8.8v3.77h-1.26v-1.26h-1.26v-1.26h-2.51v3.77h1.26v-1.26h1.26v3.77h-1.26v-1.26h-1.26v3.77h2.51v-1.26h1.26v-1.26h1.26v3.77h-8.8Z"/>
      <path class="cls-1" d="m108.53,117.33v-1.26h2.51v1.26h3.77v-1.26h-2.51v-1.26h-2.51v-1.26h-1.26v-1.26h1.26v-1.26h6.29v1.26h1.26v1.26h-2.51v-1.26h-3.77v1.26h2.51v1.26h2.51v1.26h1.26v1.26h-1.26v1.26h-6.29v-1.26h-1.26Z"/>
      <path class="cls-1" d="m116.57,117.33v-5.03h1.26v-1.26h6.29v1.26h1.26v1.26h-2.51v-1.26h-3.77v5.03h3.77v-1.26h2.51v1.26h-1.26v1.26h-6.29v-1.26h-1.26Z"/>
      <path class="cls-1" d="m124.62,117.33v-2.51h1.26v-1.26h3.77v-1.26h-3.77v-1.26h5.03v1.26h1.26v5.03h1.26v1.26h-2.51v-1.26h-1.26v-2.51h-2.51v2.51h2.51v1.26h-3.77v-1.26h-1.26Z"/>
      <path class="cls-1" d="m132.66,121.1v-1.26h1.26v-7.54h-1.26v-1.26h2.51v1.26h1.26v3.77h2.51v-3.77h-2.51v-1.26h3.77v1.26h1.26v3.77h-1.26v1.26h-3.77v2.51h1.26v1.26h-5.03Z"/>
      <path class="cls-1" d="m140.71,117.33v-5.03h1.26v-1.26h6.29v1.26h1.26v2.51h-6.29v2.51h3.77v-1.26h2.51v1.26h-1.26v1.26h-6.29v-1.26h-1.26Zm2.51-3.77h3.77v-1.26h-3.77v1.26Z"/>
      <path class="cls-1" d="m159.31,117.33v-3.77h-1.26v-1.26h1.26v-3.77h1.26v-1.26h3.77v1.26h1.26v2.51h-1.26v-1.26h-1.26v-1.26h-1.26v3.77h2.51v1.26h-2.51v3.77h1.26v1.26h-5.03v-1.26h1.26Z"/>
      <path class="cls-1" d="m164.84,118.58v-1.26h1.26v-5.03h-1.26v-1.26h2.51v1.26h1.26v-1.26h3.77v1.26h1.26v2.51h-2.51v-2.51h-1.26v1.26h-1.26v3.77h1.26v1.26h-5.03Z"/>
      <path class="cls-1" d="m172.89,117.33v-5.03h1.26v-1.26h6.29v1.26h1.26v5.03h-1.26v1.26h-6.29v-1.26h-1.26Zm2.51,0h3.77v-5.03h-3.77v5.03Z"/>
      <path class="cls-1" d="m180.93,118.58v-7.54h3.77v1.26h1.26v-1.26h2.51v1.26h1.26v6.29h-2.51v-5.03h-1.26v5.03h-1.26v-5.03h-1.26v5.03h-2.51Z"/>
      <path class="cls-1" d="m197.02,112.3v-1.26h2.51v-2.51h1.26v-1.26h1.26v3.77h2.51v1.26h-2.51v5.03h1.26v-1.26h2.51v1.26h-1.26v1.26h-3.77v-1.26h-1.26v-5.03h-2.51Z"/>
      <path class="cls-1" d="m205.07,118.58v-1.26h1.26v-8.8h-1.26v-1.26h3.77v5.03h1.26v1.26h-1.26v5.03h-3.77Zm5.03-6.29v-1.26h2.51v1.26h1.26v6.29h-2.51v-6.29h-1.26Z"/>
      <path class="cls-1" d="m213.12,117.33v-5.03h1.26v-1.26h6.29v1.26h1.26v2.51h-6.29v2.51h3.77v-1.26h2.51v1.26h-1.26v1.26h-6.29v-1.26h-1.26Zm2.51-3.77h3.77v-1.26h-3.77v1.26Z"/>
      <path class="cls-1" d="m229.21,117.33v-2.51h1.26v-1.26h3.77v-1.26h-3.77v-1.26h5.03v1.26h1.26v5.03h1.26v1.26h-2.51v-1.26h-1.26v-2.51h-2.51v2.51h2.51v1.26h-3.77v-1.26h-1.26Z"/>
      <path class="cls-1" d="m237.25,117.33v-3.77h1.26v-1.26h1.26v-1.26h2.51v-2.51h-1.26v-1.26h3.77v10.06h1.26v1.26h-2.51v-1.26h-1.26v-5.03h-1.26v1.26h-1.26v3.77h2.51v1.26h-3.77v-1.26h-1.26Z"/>
      <path class="cls-1" d="m245.3,117.33v-6.29h2.51v6.29h2.51v1.26h-3.77v-1.26h-1.26Zm5.03,0v-6.29h2.51v6.29h1.26v1.26h-2.51v-1.26h-1.26Z"/>
      <path class="cls-1" d="m259.63,117.33h1.26v1.26h-5.03v-1.26h1.26v-8.8h-1.26v-1.26h3.77v10.06Z"/>
      <path class="cls-1" d="m261.39,112.3v-1.26h2.51v-2.51h1.26v-1.26h1.26v3.77h2.51v1.26h-2.51v5.03h1.26v-1.26h2.51v1.26h-1.26v1.26h-3.77v-1.26h-1.26v-5.03h-2.51Z"/>
      <path class="cls-1" d="m269.43,117.33v-1.26h2.51v1.26h3.77v-1.26h-2.51v-1.26h-2.51v-1.26h-1.26v-1.26h1.26v-1.26h6.29v1.26h1.26v1.26h-2.51v-1.26h-3.77v1.26h2.51v1.26h2.51v1.26h1.26v1.26h-1.26v1.26h-6.29v-1.26h-1.26Z"/>
      <path class="cls-1" d="m283.76,106.01v2.51h-1.26v1.26h-2.51v-1.26h1.26v-2.51h2.51Z"/>
      <path class="cls-1" d="m293.57,117.33v-6.29h2.51v5.03h1.26v-2.51h1.26v2.51h1.26v-5.03h2.51v6.29h-1.26v1.26h-2.51v-1.26h-1.26v1.26h-2.51v-1.26h-1.26Z"/>
      <path class="cls-1" d="m301.61,117.33v-5.03h1.26v-1.26h6.29v1.26h1.26v5.03h-1.26v1.26h-6.29v-1.26h-1.26Zm2.51,0h3.77v-5.03h-3.77v5.03Z"/>
      <path class="cls-1" d="m309.66,118.58v-1.26h1.26v-5.03h-1.26v-1.26h2.51v1.26h1.26v-1.26h3.77v1.26h1.26v2.51h-2.51v-2.51h-1.26v1.26h-1.26v3.77h1.26v1.26h-5.03Z"/>
      <path class="cls-1" d="m323.99,117.33h1.26v1.26h-5.03v-1.26h1.26v-8.8h-1.26v-1.26h3.77v10.06Z"/>
      <path class="cls-1" d="m325.75,117.33v-3.77h1.26v-1.26h1.26v-1.26h2.51v-2.51h-1.26v-1.26h3.77v10.06h1.26v1.26h-2.51v-1.26h-1.26v-5.03h-1.26v1.26h-1.26v3.77h2.51v1.26h-3.77v-1.26h-1.26Z"/>
      <path class="cls-1" d="m336.31,112.3v-3.77h1.26v-1.26h2.51v1.26h1.26v3.77h-1.26v2.51h-2.51v-2.51h-1.26Zm1.26,6.29v-2.51h2.51v2.51h-2.51Z"/>
      <path class="cls-1" d="m343.1,106.01h2.51v2.51h-1.26v1.26h-2.51v-1.26h1.26v-2.51Zm5.03,0h2.51v2.51h-1.26v1.26h-2.51v-1.26h1.26v-2.51Z"/>
    </g>
    <g>
      <path class="cls-1" d="m40.52,130.49v-2.51h2.51v2.51h3.77v-2.51h-1.26v-1.26h-2.51v-1.26h-1.26v-1.26h-1.26v-2.51h1.26v-1.26h6.29v1.26h1.26v2.51h-2.51v-2.51h-3.77v2.51h1.26v1.26h2.51v1.26h1.26v1.26h1.26v2.51h-1.26v1.26h-6.29v-1.26h-1.26Z"/>
      <path class="cls-1" d="m51.08,131.74v-1.26h1.26v-5.03h-1.26v-1.26h3.77v6.29h1.26v1.26h-5.03Zm1.26-11.31h2.51v2.51h-2.51v-2.51Z"/>
      <path class="cls-1" d="m56.61,125.46v-1.26h2.51v1.26h1.26v6.29h-2.51v-6.29h-1.26Zm3.77,0v-1.26h3.77v1.26h1.26v6.29h-2.51v-6.29h-2.51Z"/>
      <path class="cls-1" d="m64.65,130.49v-5.03h1.26v-1.26h6.29v1.26h1.26v1.26h-2.51v-1.26h-3.77v5.03h3.77v-1.26h2.51v1.26h-1.26v1.26h-6.29v-1.26h-1.26Z"/>
      <path class="cls-1" d="m72.7,130.49v-5.03h1.26v-1.26h6.29v1.26h1.26v2.51h-6.29v2.51h3.77v-1.26h2.51v1.26h-1.26v1.26h-6.29v-1.26h-1.26Zm2.51-3.77h3.77v-1.26h-3.77v1.26Z"/>
      <path class="cls-1" d="m88.79,131.74v-2.51h1.26v-1.26h1.26v-1.26h1.26v-1.26h1.26v-1.26h1.26v-2.51h-3.77v1.26h-2.51v-1.26h1.26v-1.26h6.29v1.26h1.26v2.51h-1.26v1.26h-1.26v1.26h-1.26v1.26h-1.26v1.26h-1.26v1.26h3.77v-1.26h2.51v2.51h-8.8Z"/>
      <path class="cls-1" d="m96.84,130.49v-8.8h1.26v-1.26h6.29v1.26h1.26v8.8h-1.26v1.26h-6.29v-1.26h-1.26Zm2.51-5.03h1.26v-1.26h1.26v-1.26h1.26v-1.26h-3.77v3.77Zm0,5.03h3.77v-5.03h-1.26v1.26h-1.26v1.26h-1.26v2.51Z"/>
      <path class="cls-1" d="m104.88,131.74v-2.51h1.26v-1.26h1.26v-1.26h1.26v-1.26h1.26v-1.26h1.26v-2.51h-3.77v1.26h-2.51v-1.26h1.26v-1.26h6.29v1.26h1.26v2.51h-1.26v1.26h-1.26v1.26h-1.26v1.26h-1.26v1.26h-1.26v1.26h3.77v-1.26h2.51v2.51h-8.8Z"/>
      <path class="cls-1" d="m112.93,130.49v-1.26h2.51v1.26h3.77v-3.77h-3.77v-1.26h3.77v-3.77h-3.77v1.26h-2.51v-1.26h1.26v-1.26h6.29v1.26h1.26v3.77h-1.26v1.26h1.26v3.77h-1.26v1.26h-6.29v-1.26h-1.26Z"/>
      <path class="cls-1" d="m129.02,131.74v-11.31h2.51v7.54h1.26v-1.26h1.26v1.26h1.26v-7.54h2.51v11.31h-2.51v-1.26h-1.26v-1.26h-1.26v1.26h-1.26v1.26h-2.51Z"/>
      <path class="cls-1" d="m137.06,130.49v-5.03h1.26v-1.26h6.29v1.26h1.26v2.51h-6.29v2.51h3.77v-1.26h2.51v1.26h-1.26v1.26h-6.29v-1.26h-1.26Zm2.51-3.77h3.77v-1.26h-3.77v1.26Z"/>
      <path class="cls-1" d="m153.15,130.49v-2.51h1.26v-1.26h3.77v-1.26h-3.77v-1.26h5.03v1.26h1.26v5.03h1.26v1.26h-2.51v-1.26h-1.26v-2.51h-2.51v2.51h2.51v1.26h-3.77v-1.26h-1.26Z"/>
      <path class="cls-1" d="m161.2,131.74v-1.26h1.26v-5.03h-1.26v-1.26h2.51v1.26h1.26v-1.26h3.77v1.26h1.26v2.51h-2.51v-2.51h-1.26v1.26h-1.26v3.77h1.26v1.26h-5.03Z"/>
      <path class="cls-1" d="m169.24,130.49v-5.03h1.26v-1.26h6.29v1.26h1.26v2.51h-6.29v2.51h3.77v-1.26h2.51v1.26h-1.26v1.26h-6.29v-1.26h-1.26Zm2.51-3.77h3.77v-1.26h-3.77v1.26Z"/>
      <path class="cls-1" d="m185.33,129.23v-5.03h2.51v5.03h3.77v-5.03h2.51v7.54h-1.26v1.26h-1.26v1.26h-5.03v-1.26h3.77v-1.26h1.26v-1.26h-5.03v-1.26h-1.26Z"/>
      <path class="cls-1" d="m193.38,130.49v-5.03h1.26v-1.26h6.29v1.26h1.26v5.03h-1.26v1.26h-6.29v-1.26h-1.26Zm2.51,0h3.77v-5.03h-3.77v5.03Z"/>
      <path class="cls-1" d="m201.42,130.49v-6.29h2.51v6.29h2.51v1.26h-3.77v-1.26h-1.26Zm5.03,0v-6.29h2.51v6.29h1.26v1.26h-2.51v-1.26h-1.26Z"/>
      <path class="cls-1" d="m209.47,131.74v-1.26h1.26v-5.03h-1.26v-1.26h2.51v1.26h1.26v-1.26h3.77v1.26h1.26v2.51h-2.51v-2.51h-1.26v1.26h-1.26v3.77h1.26v1.26h-5.03Z"/>
      <path class="cls-1" d="m225.56,130.49v-5.03h1.26v-1.26h6.29v1.26h1.26v5.03h-1.26v1.26h-6.29v-1.26h-1.26Zm2.51,0h3.77v-5.03h-3.77v5.03Z"/>
      <path class="cls-1" d="m233.61,130.49v-6.29h2.51v5.03h1.26v-2.51h1.26v2.51h1.26v-5.03h2.51v6.29h-1.26v1.26h-2.51v-1.26h-1.26v1.26h-2.51v-1.26h-1.26Z"/>
      <path class="cls-1" d="m241.65,125.46v-1.26h2.51v1.26h1.26v6.29h-2.51v-6.29h-1.26Zm3.77,0v-1.26h3.77v1.26h1.26v6.29h-2.51v-6.29h-2.51Z"/>
      <path class="cls-1" d="m257.74,134.26v-1.26h1.26v-7.54h-1.26v-1.26h2.51v1.26h1.26v3.77h2.51v-3.77h-2.51v-1.26h3.77v1.26h1.26v3.77h-1.26v1.26h-3.77v2.51h1.26v1.26h-5.03Z"/>
      <path class="cls-1" d="m272.07,130.49h1.26v1.26h-5.03v-1.26h1.26v-8.8h-1.26v-1.26h3.77v10.06Z"/>
      <path class="cls-1" d="m273.83,130.49v-5.03h1.26v-1.26h6.29v1.26h1.26v2.51h-6.29v2.51h3.77v-1.26h2.51v1.26h-1.26v1.26h-6.29v-1.26h-1.26Zm2.51-3.77h3.77v-1.26h-3.77v1.26Z"/>
      <path class="cls-1" d="m281.88,130.49v-2.51h1.26v-1.26h3.77v-1.26h-3.77v-1.26h5.03v1.26h1.26v5.03h1.26v1.26h-2.51v-1.26h-1.26v-2.51h-2.51v2.51h2.51v1.26h-3.77v-1.26h-1.26Z"/>
      <path class="cls-1" d="m289.92,130.49v-1.26h2.51v1.26h3.77v-1.26h-2.51v-1.26h-2.51v-1.26h-1.26v-1.26h1.26v-1.26h6.29v1.26h1.26v1.26h-2.51v-1.26h-3.77v1.26h2.51v1.26h2.51v1.26h1.26v1.26h-1.26v1.26h-6.29v-1.26h-1.26Z"/>
      <path class="cls-1" d="m297.97,130.49v-6.29h2.51v6.29h2.51v1.26h-3.77v-1.26h-1.26Zm5.03,0v-6.29h2.51v6.29h1.26v1.26h-2.51v-1.26h-1.26Z"/>
      <path class="cls-1" d="m306.01,131.74v-1.26h1.26v-5.03h-1.26v-1.26h2.51v1.26h1.26v-1.26h3.77v1.26h1.26v2.51h-2.51v-2.51h-1.26v1.26h-1.26v3.77h1.26v1.26h-5.03Z"/>
      <path class="cls-1" d="m314.06,130.49v-5.03h1.26v-1.26h6.29v1.26h1.26v2.51h-6.29v2.51h3.77v-1.26h2.51v1.26h-1.26v1.26h-6.29v-1.26h-1.26Zm2.51-3.77h3.77v-1.26h-3.77v1.26Z"/>
      <path class="cls-1" d="m328.39,131.74v2.51h-2.51v-2.51h2.51Z"/>
    </g>
  </g>
</svg>