<?xml version="1.0" encoding="UTF-8"?>
<svg id="Layer_2" data-name="Layer 2" xmlns="http://www.w3.org/2000/svg" viewBox="0 0 28.37 96.86">
  <defs>
    <style>
      .cls-1 {
        fill: #231f20;
      }
    </style>
  </defs>
  <g id="Layer_1-2" data-name="Layer 1">
    <g>
      <path class="cls-1" d="m10.26,80.91h-1.14v-1.14H1.14v1.14H0v-6.84h1.14v-1.14h3.42v1.14h2.28v-1.14h2.28v-1.14h1.14v3.42h-3.42v1.14h-1.14v1.14h4.56v3.42Zm-5.7-3.42v-2.28H1.14v2.28h3.42Z"/>
      <path class="cls-1" d="m9.12,71.79h-4.56v-1.14h-1.14v-5.7h1.14v-1.14h2.28v5.7h2.28v-3.42h-1.14v-2.28h1.14v1.14h1.14v5.7h-1.14v1.14Zm-3.42-2.28v-3.42h-1.14v3.42h1.14Z"/>
      <path class="cls-1" d="m9.12,62.67h-4.56v-1.14h-1.14v-5.7h1.14v-1.14h1.14v2.28h-1.14v3.42h4.56v-3.42h-1.14v-2.28h1.14v1.14h1.14v5.7h-1.14v1.14Z"/>
      <path class="cls-1" d="m0,50.14v-2.28h2.28v2.28H0Zm10.26,1.14h-1.14v-1.14h-4.56v1.14h-1.14v-3.42h5.7v-1.14h1.14v4.56Z"/>
      <path class="cls-1" d="m12.53,44.44h-1.14v-1.14h-6.84v1.14h-1.14v-2.28h1.14v-1.14h3.42v-2.28h-3.42v2.28h-1.14v-3.42h1.14v-1.14h3.42v1.14h1.14v3.42h2.28v-1.14h1.14v4.56Z"/>
      <path class="cls-1" d="m0,31.91v-2.28h2.28v2.28H0Zm10.26,1.14h-1.14v-1.14h-4.56v1.14h-1.14v-3.42h5.7v-1.14h1.14v4.56Z"/>
      <path class="cls-1" d="m9.12,26.21h-4.56v-1.14h-1.14v-5.7h1.14v-1.14h2.28v5.7h2.28v-3.42h-1.14v-2.28h1.14v1.14h1.14v5.7h-1.14v1.14Zm-3.42-2.28v-3.42h-1.14v3.42h1.14Z"/>
      <path class="cls-1" d="m4.56,13.67h-1.14v-3.42h1.14v-1.14h5.7v2.28h-5.7v2.28Zm0,3.42h-1.14v-2.28h1.14v-1.14h5.7v2.28h-5.7v1.14Z"/>
      <path class="cls-1" d="m4.56,7.98h-1.14v-2.28H1.14v-1.14H0v-1.14h3.42V1.14h1.14v2.28h4.56v-1.14h-1.14V0h1.14v1.14h1.14v3.42h-1.14v1.14h-4.56v2.28Z"/>
      <path class="cls-1" d="m18.11,95.72v-2.28h2.28v2.28h-2.28Zm10.26,1.14h-1.14v-1.14h-4.56v1.14h-1.14v-3.42h5.7v-1.14h1.14v4.56Z"/>
      <path class="cls-1" d="m22.67,86.6h-1.14v-3.42h1.14v-1.14h5.7v2.28h-5.7v2.28Zm0,3.42h-1.14v-2.28h1.14v-1.14h5.7v2.28h-5.7v1.14Z"/>
      <path class="cls-1" d="m27.23,78.63h-3.42v1.14h-1.14v-1.14h-3.42v-1.14h-1.14v-3.42h1.14v-1.14h2.28v1.14h-1.14v1.14h-1.14v1.14h3.42v-2.28h1.14v2.28h3.42v-1.14h1.14v4.56h-1.14v-1.14Z"/>
      <path class="cls-1" d="m27.23,71.79h-4.56v-1.14h-1.14v-5.7h1.14v-1.14h4.56v1.14h1.14v5.7h-1.14v1.14Zm0-2.28v-3.42h-4.56v3.42h4.56Z"/>
      <path class="cls-1" d="m28.37,62.67h-1.14v-1.14h-4.56v1.14h-1.14v-2.28h1.14v-1.14h-1.14v-3.42h1.14v-1.14h2.28v2.28h-2.28v1.14h1.14v1.14h3.42v-1.14h1.14v4.56Z"/>
      <path class="cls-1" d="m28.37,53.56h-6.84v-3.42h1.14v-1.14h-1.14v-2.28h1.14v-1.14h5.7v2.28h-4.56v1.14h4.56v1.14h-4.56v1.14h4.56v2.28Z"/>
      <path class="cls-1" d="m27.23,44.44h-2.28v-1.14h-1.14v-3.42h-1.14v3.42h-1.14v-4.56h1.14v-1.14h4.56v-1.14h1.14v2.28h-1.14v1.14h-2.28v2.28h2.28v-2.28h1.14v3.42h-1.14v1.14Z"/>
      <path class="cls-1" d="m22.67,35.33h-1.14v-2.28h-2.28v-1.14h-1.14v-1.14h3.42v-2.28h1.14v2.28h4.56v-1.14h-1.14v-2.28h1.14v1.14h1.14v3.42h-1.14v1.14h-4.56v2.28Z"/>
      <path class="cls-1" d="m18.11,22.79v-2.28h2.28v2.28h-2.28Zm10.26,1.14h-1.14v-1.14h-4.56v1.14h-1.14v-3.42h5.7v-1.14h1.14v4.56Z"/>
      <path class="cls-1" d="m27.23,17.09h-4.56v-1.14h-1.14v-5.7h1.14v-1.14h4.56v1.14h1.14v5.7h-1.14v1.14Zm0-2.28v-3.42h-4.56v3.42h4.56Z"/>
      <path class="cls-1" d="m22.67,4.56h-1.14V1.14h1.14V0h5.7v2.28h-5.7v2.28Zm0,3.42h-1.14v-2.28h1.14v-1.14h5.7v2.28h-5.7v1.14Z"/>
    </g>
  </g>
</svg>