<?xml version="1.0" encoding="UTF-8"?>
<svg id="Layer_2" data-name="Layer 2" xmlns="http://www.w3.org/2000/svg" viewBox="0 0 276.25 70.54">
  <defs>
    <style>
      .cls-1 {
        fill: #fffad7;
      }

      .cls-2 {
        fill: #2982be;
      }
    </style>
  </defs>
  <g id="Layer_1-2" data-name="Layer 1">
    <g>
      <path class="cls-1" d="m276.19,24.24c.23-2.73-.24-5.29-1.39-7.63-1.05-2.12-3.23-4.95-7.68-6.34-.4-.12-.8-.22-1.21-.28-.81-.13-1.6-.19-2.36-.19-.44,0-.87.02-1.32.07-.91.09-1.85.27-2.79.53-.26.07-.56.17-.84.28-.89-.34-1.83-.71-2.85-1.12-1.44-.57-2.99-1.07-4.62-1.48-1.7-.44-3.55-.66-5.48-.66-.37,0-.74,0-1.12.02-.06,0-.12,0-.18,0-2.29,0-4.61.44-6.92,1.32-1.58.6-3.1,1.38-4.56,2.3-.88-2.09-2.29-3.81-4.19-5.05-1.08-.7-2.32-1.32-3.79-1.89-.34-.13-.7-.24-1.06-.33-2.67-.65-4.91-.97-6.83-.97-3.45,0-6.37.85-8.71,2.54-2.41,1.74-4.12,4.2-4.93,7.1-.4,1.42-.61,2.94-.63,4.54h-.05c-2.97,0-5.78.72-8.37,2.13,0,0,0,0,0,0,.46-2.13.45-4.27-.02-6.37-.54-2.41-1.7-4.55-3.44-6.36-1.96-2.04-4.61-3.36-7.66-3.82-.31-.05-.62-.07-.93-.09-.97-.04-1.97-.1-2.96-.2-.5-.05-1-.07-1.49-.07-2.02,0-4,.39-5.88,1.16-.31.13-.61.27-.9.43-1.61.89-3.04,2.17-4.25,3.78-1,1.32-1.78,2.78-2.34,4.32-.85-.28-1.74-.53-2.67-.74-1.4-.3-2.83-.45-4.26-.45-1.25,0-2.48.13-3.68.39-.2-.92-.48-1.82-.86-2.67-1.32-2.98-3.61-5.32-6.63-6.77-2.34-1.13-5.01-1.7-7.91-1.7-1.41,0-2.87.13-4.35.4-1.35.25-2.76.61-4.2,1.08-1.08.35-2.07.92-2.92,1.66-.59.51-1.11,1.03-1.59,1.56-.43-.19-.87-.38-1.34-.57-.34-.13-.7-.24-1.06-.33-2.67-.65-4.91-.97-6.83-.97-3.45,0-6.37.85-8.71,2.54-2.41,1.74-4.12,4.2-4.93,7.1-.4,1.42-.61,2.94-.63,4.54h-.05c-2.81,0-5.49.65-7.97,1.92-.2-.61-.44-1.22-.72-1.82-.16-.33-.33-.66-.53-.97-1.39-2.18-3.49-3.91-6.23-5.13-2.28-1.01-4.7-1.52-7.2-1.52s-5.11.6-7.45,1.78c-.25.12-.49.26-.72.4-.4-.22-.81-.42-1.23-.6-2.29-1-4.7-1.5-7.18-1.5-2.16,0-4.28.37-6.31,1.09-2.19.78-4.15,1.96-5.84,3.52-.01.01-.02.02-.03.03-.82-1.47-1.83-2.84-3.04-4.09-.06-.06-.12-.12-.18-.18-3.84-3.73-8.24-6.34-13.07-7.77C30.1.98,25.93.39,21.71.39c-.36,0-.71,0-1.07.01-.16,0-.32.01-.48.02-.87.07-1.88.11-3.01.11-2.06,0-4.05.25-5.94.73-2.61.68-4.9,1.94-6.81,3.77C2.85,6.52.95,9.15.42,13.39c-.57,2.38-.57,4.71.02,6.94.39,1.51.97,3.07,1.71,4.62.45.94.93,2.02,1.42,3.21.14.33.38,1.08.53,2.48.09.84.13,2.37-.18,4.83-.26,2.02-.94,4.6-2.03,7.68-.42,1.15-.75,2.3-.97,3.42-.22,1.12-.34,2.29-.37,3.5-.2,2.79.43,5.48,1.81,7.81,1.2,2.02,2.82,3.71,4.82,5.03,1.66,1.1,3.52,1.95,5.54,2.52,1.92.54,3.89.81,5.85.81,2.79,0,5.44-.54,7.88-1.6,1.43-.62,2.72-1.43,3.82-2.42,1.11.58,2.31,1.09,3.58,1.52.15.05.3.1.45.14.85.24,1.76.42,2.76.56,1.02.14,2.09.21,3.2.21,1.88,0,3.78-.25,5.64-.74,1.71-.45,3.27-1.15,4.68-2.07,1.81,2.26,4.29,4.15,7.41,5.61,2.93,1.37,6.58,2.25,11.15,2.71.28.03.56.04.84.04.09,0,.17,0,.26,0,2.14-.06,4.4-.42,6.72-1.06,2.45-.68,4.8-1.72,6.96-3.08,2.1-1.32,3.96-2.99,5.56-4.93,1.03,1.09,2.14,2.07,3.32,2.93,3.14,2.28,6.59,3.44,10.24,3.44,1.14,0,2.27-.12,3.4-.37.02.02.05.04.08.06,1.61,1.3,3.48,2.23,5.56,2.75,1.55.39,3.15.59,4.76.59,3.15,0,6.08-.62,8.72-1.85.04-.02.08-.04.13-.06,2.07-1.01,3.76-2.54,4.93-4.45,1.04.26,2.12.46,3.22.56.55.05,1.05.11,1.5.18.41.06.83.09,1.24.09.38,0,.91.02,1.55.05.42.02.85.04,1.27.04.84,0,1.69-.05,2.53-.14,1.3-.14,2.59-.38,3.82-.72.52-.14,1.02-.31,1.51-.51,1.2.55,2.53.96,3.98,1.21,1.6.28,3.33.43,5.15.43.19,0,.37,0,.57,0,.7.07,1.45.1,2.23.1.72,0,1.5-.03,2.3-.09,2.14-.16,4.15-.63,5.99-1.41.93-.39,1.78-.87,2.57-1.43,2.29,1.36,5.14,2.28,8.68,2.78.4.06.79.08,1.19.08.81,0,1.61-.12,2.38-.34,1.14-.14,2.26-.39,3.33-.73,1.92-.62,3.61-1.59,5.05-2.87.94.96,1.95,1.84,3.02,2.62,3.14,2.28,6.59,3.44,10.24,3.44,1.14,0,2.27-.12,3.4-.37.02.02.05.04.08.06,1.61,1.3,3.48,2.23,5.56,2.75,1.55.39,3.15.59,4.76.59,3.15,0,6.08-.62,8.72-1.85.04-.02.08-.04.13-.06,1.53-.74,2.85-1.78,3.91-3.04,1.22.69,2.57,1.32,4.07,1.88,3.55,1.32,8.02,2.03,13.66,2.15.44.03.89.04,1.33.04,1.41,0,2.87-.14,4.33-.41,1.79-.34,3.58-.85,5.31-1.52,1.83-.71,3.59-1.63,5.22-2.73,1.68-1.13,3.19-2.43,4.48-3.87.03-.04.07-.07.1-.11,1.63-1.87,3.03-4.06,4.17-6.5,1.27-2.72,2-5.53,2.16-8.37.18-3.25-.46-6.38-1.93-9.31-.36-.72-.78-1.41-1.24-2.06.93-1.32,1.74-2.73,2.4-4.22.92-2.07,1.47-4.18,1.65-6.3Zm-111.56,13.19c-.26-.34-.55-.71-.86-1.12.27-.09.54-.18.81-.27.17-.06.33-.12.49-.18.25-.1.5-.22.74-.33.03.1.05.19.08.29-.19.76-.42,1.56-.66,2.38-.19-.24-.39-.5-.6-.77Z"/>
      <path class="cls-2" d="m8.83,14.92c.12-1.67.6-2.91,1.46-3.73.85-.81,1.87-1.37,3.06-1.68,1.19-.31,2.46-.46,3.8-.46s2.58-.04,3.69-.13c3.72-.09,7.34.39,10.85,1.42,3.51,1.03,6.69,2.94,9.54,5.71,1.7,1.76,2.69,3.8,2.97,6.13.28,2.33.03,4.6-.74,6.79-.77,2.2-1.96,4.16-3.57,5.87-1.61,1.72-3.46,2.81-5.56,3.3.28.66.64,1.28,1.1,1.85.45.57.95,1.07,1.49,1.48.53.42,1.1.75,1.69.99.59.24,1.17.36,1.72.36.87,0,1.64-.31,2.32-.92.67-.62,1.15-1.67,1.43-3.17.95-.92,1.76-1.39,2.44-1.39s1.24.37,1.69,1.12c.45.75.78,1.68.98,2.8.2,1.12.3,2.36.3,3.73s-.1,2.66-.3,3.89c-.2,1.23-.51,2.33-.92,3.3-.42.97-.92,1.61-1.52,1.91-.83.75-1.83,1.28-3,1.58-1.17.31-2.33.46-3.48.46-.71,0-1.39-.04-2.02-.13-.63-.09-1.19-.2-1.67-.33-1.82-.62-3.32-1.42-4.49-2.41-1.17-.99-2.12-2.06-2.85-3.2-.73-1.14-1.29-2.3-1.66-3.46-.38-1.16-.69-2.23-.95-3.2-.26-.97-.5-1.77-.71-2.41-.22-.64-.55-.98-.98-1.02-.63,0-1.01.3-1.13.89s-.08,1.34.12,2.24c.2.9.48,1.91.83,3.03.36,1.12.68,2.2.98,3.23.3,1.03.49,1.97.59,2.8.1.84-.03,1.45-.39,1.85-.56,1.28-1.52,2.21-2.88,2.8s-2.86.89-4.49.89c-1.19,0-2.37-.17-3.54-.49s-2.22-.8-3.15-1.42c-.93-.62-1.67-1.37-2.2-2.28-.53-.9-.74-1.92-.62-3.07,0-.79.07-1.54.21-2.24.14-.7.35-1.43.62-2.18,1.31-3.69,2.13-6.86,2.47-9.5.34-2.64.41-4.9.21-6.79-.2-1.89-.57-3.51-1.13-4.85-.56-1.34-1.09-2.55-1.6-3.63-.52-1.08-.9-2.11-1.16-3.1-.26-.99-.21-2.08.15-3.27Zm20.51,11.81c1.19-.53,1.91-1.02,2.17-1.48.26-.46.24-.89-.06-1.29-.3-.4-.81-.74-1.55-1.02-.73-.29-1.53-.52-2.38-.69-.85-.18-1.68-.29-2.5-.33-.81-.04-1.44.02-1.87.2-.24,1.45-.21,2.51.09,3.17s.75,1.09,1.37,1.29c.61.2,1.35.26,2.2.2.85-.07,1.69-.08,2.53-.03Z"/>
      <path class="cls-2" d="m56.63,37.68c.08-.97.03-1.88-.15-2.74s-.41-1.7-.68-2.54c-.28-.83-.57-1.68-.86-2.54s-.55-1.77-.74-2.74c-.28-1.45-.22-2.74.18-3.86.4-1.12,1.01-2.07,1.84-2.84.83-.77,1.8-1.35,2.91-1.75,1.11-.4,2.26-.59,3.45-.59,1.31,0,2.57.26,3.78.79,1.21.53,2.19,1.36,2.94,2.51.44.84.58,1.66.45,2.47-.14.81-.41,1.64-.8,2.47-.4.84-.83,1.66-1.31,2.47-.48.81-.83,1.62-1.07,2.41-.24.84-.37,1.8-.39,2.9-.02,1.1.09,2.13.33,3.1.24.97.63,1.76,1.19,2.37.55.62,1.31.84,2.26.66,1.62-.62,2.77-1.45,3.45-2.51.67-1.06,1.07-2.21,1.19-3.46s.04-2.54-.24-3.86c-.28-1.32-.58-2.56-.89-3.73-.32-1.16-.55-2.18-.68-3.03-.14-.86-.03-1.46.33-1.81.52-1.41,1.34-2.4,2.47-2.97,1.13-.57,2.33-.86,3.6-.86s2.56.26,3.74.79c1.19.53,2.02,1.17,2.5,1.91.55,1.19.78,2.43.68,3.73-.1,1.3-.32,2.63-.65,3.99-.34,1.36-.67,2.72-1.01,4.06-.34,1.34-.45,2.65-.33,3.92,0,1.19.09,2.35.27,3.5.18,1.14.37,2.29.57,3.43.2,1.14.36,2.3.48,3.46.12,1.17.08,2.36-.12,3.59-.28,1.89-.96,3.54-2.05,4.95-1.09,1.41-2.37,2.57-3.83,3.5-1.47.92-3.03,1.62-4.7,2.08-1.67.46-3.23.71-4.7.76-3.57-.35-6.36-1-8.38-1.95-2.02-.95-3.53-2.08-4.52-3.4-.99-1.32-1.57-2.76-1.72-4.32-.16-1.56-.14-3.17.06-4.82.2-1.65.45-3.3.77-4.95.32-1.65.45-3.18.42-4.58Z"/>
      <path class="cls-2" d="m90.1,38.47c.16-1.58.55-3.14,1.19-4.68.63-1.54,1.47-2.91,2.5-4.12,1.03-1.21,2.23-2.2,3.6-2.97,1.37-.77,2.84-1.15,4.43-1.15,1.66,0,3.4.47,5.2,1.42,1.8.95,3.66,2.54,5.56,4.78-.12-1.36-.34-2.81-.65-4.35-.32-1.54-.61-3.07-.89-4.58-.28-1.52-.48-2.97-.6-4.35s-.03-2.61.27-3.66c.3-1.06.87-1.89,1.72-2.51.85-.62,2.09-.92,3.72-.92,1.23,0,2.83.24,4.82.73.91.35,1.65.72,2.23,1.09.57.37.96.96,1.16,1.75.24,2.42.18,4.45-.18,6.1-.36,1.65-.79,3.18-1.31,4.58-.52,1.41-1.03,2.84-1.55,4.29-.52,1.45-.82,3.19-.92,5.21-.1,2.02.09,4.5.57,7.42.48,2.92,1.43,6.56,2.85,10.92.16.7.27,1.44.33,2.21.06.77.03,1.5-.09,2.18-.12.68-.34,1.3-.65,1.85-.32.55-.79.98-1.43,1.29-1.51.7-3.21,1.06-5.11,1.06-.91,0-1.8-.11-2.68-.33-.87-.22-1.63-.59-2.29-1.12s-1.15-1.21-1.49-2.04c-.34-.84-.45-1.85-.33-3.03-1.15,1.23-2.32,2.12-3.51,2.67-1.19.55-2.36.82-3.51.82-1.82,0-3.57-.6-5.23-1.81s-3.1-2.78-4.31-4.72c-1.21-1.93-2.14-4.12-2.79-6.56s-.86-4.91-.62-7.42Zm12.37,5.67c.48,0,.88-.38,1.22-1.15.34-.77.5-1.73.5-2.87s-.17-2.03-.5-2.8c-.34-.77-.74-1.15-1.22-1.15-.52,0-.94.39-1.28,1.15-.34.77-.51,1.7-.51,2.8s.17,2.1.51,2.87c.34.77.76,1.15,1.28,1.15Z"/>
      <path class="cls-2" d="m132.54,9.58c1.07-.35,2.09-.62,3.06-.79.97-.18,1.91-.26,2.82-.26,1.62,0,3.03.29,4.22.86,1.19.57,2.03,1.42,2.53,2.54.5,1.12.57,2.5.24,4.12-.34,1.63-1.2,3.52-2.59,5.67-.63,2.29-1.02,4.08-1.16,5.38-.14,1.3-.1,2.22.12,2.77.22.55.58.8,1.1.76.51-.04,1.08-.24,1.69-.59.61-.35,1.27-.81,1.96-1.39.69-.57,1.34-1.1,1.93-1.58.99-.79,1.76-1.7,2.32-2.74.55-1.03,1.17-2.12,1.84-3.27.67-.66,1.43-1.12,2.26-1.39.83-.26,1.7-.4,2.62-.4.83,0,1.65.09,2.47.26.81.18,1.58.4,2.29.66,1.15.31,1.91.84,2.29,1.58.38.75.49,1.53.33,2.34-.16.81-.52,1.58-1.07,2.31-.55.73-1.21,1.24-1.96,1.55-2.34.79-4.34,1.34-6,1.65-1.67.31-2.86.7-3.6,1.19-.73.48-.97,1.22-.71,2.21.26.99,1.14,2.56,2.65,4.72,1.51,2.02,2.74,3.66,3.72,4.91.97,1.25,1.79,2.25,2.47,3,.67.75,1.23,1.32,1.66,1.71.44.4.85.75,1.25,1.06.4.31.81.64,1.25.99.44.35.99.88,1.66,1.58.59,1.36.65,2.45.18,3.27-.48.81-1.21,1.43-2.2,1.85-.99.42-2.09.67-3.3.76-1.21.09-2.25.09-3.12,0v-.07c-1.86.09-3.54,0-5.02-.26-1.49-.26-2.59-.78-3.3-1.55-.71-.77-.95-1.79-.71-3.07.24-1.28,1.15-2.86,2.73-4.75.32-.88.29-1.77-.09-2.67-.38-.9-.92-1.71-1.63-2.44-.71-.73-1.5-1.32-2.35-1.78-.85-.46-1.6-.69-2.23-.69-.83.04-1.42.29-1.75.73-.34.44-.51.98-.51,1.62s.13,1.34.39,2.11c.26.77.57,1.53.95,2.28.38.75.76,1.43,1.16,2.04.4.62.71,1.1.95,1.45.36,1.23.44,2.27.24,3.1-.2.84-.57,1.51-1.1,2.01-.53.51-1.2.87-1.99,1.09-.79.22-1.6.37-2.44.46-.83.09-1.65.11-2.44.07-.79-.04-1.47-.07-2.02-.07-.59-.09-1.25-.17-1.96-.23-.71-.07-1.4-.19-2.05-.36-.65-.18-1.27-.42-1.84-.73-.57-.31-1.02-.75-1.34-1.32-.44-.7-.63-1.52-.59-2.44.04-.92.22-1.89.53-2.9,1.11-2.59,1.95-4.83,2.53-6.7.57-1.87.98-3.63,1.22-5.28.24-1.65.36-3.29.36-4.91s-.06-3.45-.18-5.48c.04-1.49-.08-2.84-.36-4.02-.28-1.19-.58-2.26-.92-3.23-.34-.97-.67-1.84-1.01-2.61-.34-.77-.53-1.52-.59-2.24-.06-.73.06-1.45.36-2.18.3-.73.9-1.48,1.81-2.28Z"/>
      <path class="cls-2" d="m174.22,33.85c-.59-1.72-.87-3.18-.83-4.39.04-1.21.29-2.19.74-2.94.45-.75,1.07-1.3,1.84-1.65.77-.35,1.58-.53,2.41-.53.67,0,1.35.1,2.02.3.67.2,1.28.48,1.81.86.53.37.98.82,1.34,1.35s.53,1.12.53,1.78c-.2,2.77-.26,5.07-.18,6.89.08,1.83.25,3.43.51,4.82.26,1.39.57,2.67.95,3.86.38,1.19.74,2.53,1.1,4.02.36,1.5.42,2.78.21,3.86-.22,1.08-.64,1.96-1.28,2.64-.63.68-1.43,1.18-2.38,1.48-.95.31-1.96.46-3.03.46,0,.09-.02.15-.06.2-2.81-.4-4.87-1.09-6.15-2.08-1.29-.99-2.08-2.15-2.38-3.5-.3-1.34-.25-2.79.15-4.35.4-1.56.85-3.13,1.37-4.72.51-1.58.95-3.1,1.31-4.55s.36-2.73,0-3.83Zm.95-22.56c1.07-.44,2.18-.6,3.33-.49,1.15.11,2.3.19,3.45.23,1.19.18,2.11.61,2.76,1.29.65.68,1.08,1.46,1.28,2.34.2.88.2,1.78,0,2.7-.2.92-.58,1.74-1.13,2.44-.56.7-1.27,1.22-2.14,1.55-.87.33-1.86.34-2.97.03-1.86.13-3.34.01-4.43-.36-1.09-.37-1.9-.88-2.44-1.52-.53-.64-.81-1.37-.83-2.21-.02-.83.11-1.64.39-2.41.28-.77.66-1.48,1.16-2.14.49-.66,1.02-1.14,1.57-1.45Z"/>
      <path class="cls-2" d="m190.98,38.47c.16-1.58.55-3.14,1.19-4.68.63-1.54,1.47-2.91,2.5-4.12,1.03-1.21,2.23-2.2,3.6-2.97,1.37-.77,2.84-1.15,4.43-1.15,1.66,0,3.4.47,5.2,1.42,1.8.95,3.66,2.54,5.56,4.78-.12-1.36-.34-2.81-.65-4.35-.32-1.54-.61-3.07-.89-4.58-.28-1.52-.48-2.97-.6-4.35s-.03-2.61.27-3.66c.3-1.06.87-1.89,1.72-2.51.85-.62,2.09-.92,3.72-.92,1.23,0,2.83.24,4.82.73.91.35,1.65.72,2.23,1.09.57.37.96.96,1.16,1.75.24,2.42.18,4.45-.18,6.1-.36,1.65-.79,3.18-1.31,4.58-.52,1.41-1.03,2.84-1.55,4.29-.52,1.45-.82,3.19-.92,5.21-.1,2.02.09,4.5.57,7.42.48,2.92,1.43,6.56,2.85,10.92.16.7.27,1.44.33,2.21.06.77.03,1.5-.09,2.18-.12.68-.34,1.3-.65,1.85-.32.55-.79.98-1.43,1.29-1.51.7-3.21,1.06-5.11,1.06-.91,0-1.8-.11-2.68-.33-.87-.22-1.63-.59-2.29-1.12s-1.15-1.21-1.49-2.04c-.34-.84-.45-1.85-.33-3.03-1.15,1.23-2.32,2.12-3.51,2.67-1.19.55-2.36.82-3.51.82-1.82,0-3.57-.6-5.23-1.81s-3.1-2.78-4.31-4.72c-1.21-1.93-2.14-4.12-2.79-6.56s-.86-4.91-.62-7.42Zm12.37,5.67c.48,0,.88-.38,1.22-1.15.34-.77.5-1.73.5-2.87s-.17-2.03-.5-2.8c-.34-.77-.74-1.15-1.22-1.15-.52,0-.94.39-1.28,1.15-.34.77-.51,1.7-.51,2.8s.17,2.1.51,2.87c.34.77.76,1.15,1.28,1.15Z"/>
      <path class="cls-2" d="m238.6,42.82c.2,1.14.51,2.1.92,2.87.42.77.9,1.39,1.46,1.85.55.46,1.16.79,1.81.99.65.2,1.3.3,1.93.3.71,0,1.41-.09,2.08-.26.67-.18,1.26-.38,1.75-.63.49-.24.89-.5,1.19-.79.3-.29.45-.54.45-.76-.04-1.32-.41-2.36-1.1-3.13-.69-.77-1.54-1.36-2.53-1.78-.99-.42-2.05-.74-3.18-.96-1.13-.22-2.15-.42-3.06-.59-1.51-.4-2.95-.93-4.34-1.62-1.39-.68-2.54-1.51-3.45-2.47-1.15-1.49-1.83-3.02-2.05-4.58-.22-1.56-.11-3.09.33-4.58.44-1.49,1.15-2.9,2.14-4.22.99-1.32,2.13-2.46,3.42-3.43,1.29-.97,2.65-1.73,4.1-2.28,1.45-.55,2.84-.8,4.19-.76,1.62-.09,3.08.03,4.37.36,1.29.33,2.49.72,3.6,1.15,1.11.44,2.15.85,3.12,1.22.97.37,1.97.56,3,.56.95,0,1.94-.22,2.97-.66.48-.13.93-.22,1.37-.26.44-.04.93-.02,1.49.07,1.27.4,2.13,1.06,2.59,1.98.45.92.63,1.97.53,3.13-.1,1.17-.42,2.35-.95,3.56-.53,1.21-1.2,2.32-1.99,3.33-.79,1.01-1.65,1.84-2.56,2.47-.91.64-1.76.93-2.56.89-.87,0-1.59-.24-2.14-.73-.56-.48-1.06-1.08-1.52-1.78-.46-.7-.88-1.43-1.28-2.18-.4-.75-.85-1.36-1.37-1.85-1.51-1.23-2.95-1.85-4.34-1.85-1.15,0-2.09.42-2.82,1.25-.73.84-1.12,2.02-1.16,3.56,0,1.32.31,2.33.92,3.03.61.7,1.43,1.21,2.44,1.52,1.01.31,2.14.49,3.39.56,1.25.07,2.48.12,3.69.16,1.21.04,2.35.13,3.42.26,1.07.13,1.92.46,2.56.99,2.1,1.01,3.55,2.31,4.34,3.89.79,1.58,1.14,3.25,1.04,5.01-.1,1.76-.55,3.51-1.37,5.24-.81,1.74-1.77,3.24-2.88,4.52-.83.92-1.8,1.76-2.91,2.51-1.11.75-2.29,1.36-3.54,1.85-1.25.48-2.52.85-3.8,1.09-1.29.24-2.53.32-3.72.23-4.72-.09-8.4-.63-11.06-1.62-2.66-.99-4.55-2.2-5.68-3.63-1.13-1.43-1.65-2.98-1.57-4.65.08-1.67.48-3.21,1.22-4.62.73-1.41,1.63-2.57,2.7-3.5,1.07-.92,2.02-1.39,2.85-1.39.75,0,1.27.37,1.55,1.12Z"/>
    </g>
  </g>
</svg>