<?xml version="1.0" encoding="UTF-8"?>
<svg id="Layer_2" data-name="Layer 2" xmlns="http://www.w3.org/2000/svg" viewBox="0 0 354.37 117.02">
  <defs>
    <style>
      .cls-1 {
        fill: #231f20;
      }
    </style>
  </defs>
  <g id="Layer_1-2" data-name="Layer 1">
    <g>
      <path class="cls-1" d="m0,53.54V17.85h2.32v-5.95h2.32v-5.95h2.32V0h2.32v5.95h2.32v5.95h2.32v5.95h2.32v35.69h-4.63v-17.85h-6.95v17.85H0Zm4.63-23.79h6.95v-11.9h-2.32v-5.95h-2.32v5.95h-2.32v11.9Z"/>
      <path class="cls-1" d="m17.8,47.59v-17.85h2.32v-5.95h2.32v-5.95h4.63V5.95h-2.32V0h6.95v47.59h2.32v5.95h-4.63v-5.95h-2.32v-23.79h-2.32v5.95h-2.32v17.85h4.63v5.95h-6.95v-5.95h-2.32Z"/>
      <path class="cls-1" d="m35.59,47.59v-17.85h2.32v-5.95h2.32v-5.95h4.63V5.95h-2.32V0h6.95v47.59h2.32v5.95h-4.63v-5.95h-2.32v-23.79h-2.32v5.95h-2.32v17.85h4.63v5.95h-6.95v-5.95h-2.32Z"/>
      <path class="cls-1" d="m71.19,47.59v-5.95h4.63v5.95h6.95v-5.95h-4.63v-5.95h-4.63v-5.95h-2.32v-5.95h2.32v-5.95h11.59v5.95h2.32v5.95h-4.63v-5.95h-6.95v5.95h4.63v5.95h4.63v5.95h2.32v5.95h-2.32v5.95h-11.59v-5.95h-2.32Z"/>
      <path class="cls-1" d="m88.99,53.54v-5.95h2.32V5.95h-2.32V0h6.95v23.8h2.32v5.95h-2.32v23.79h-6.95Zm9.27-29.74v-5.95h4.63v5.95h2.32v29.74h-4.63v-29.74h-2.32Z"/>
      <path class="cls-1" d="m111.42,53.54v-5.95h2.32v-23.79h-2.32v-5.95h6.95v29.74h2.32v5.95h-9.27ZM113.74,0h4.63v11.9h-4.63V0Z"/>
      <path class="cls-1" d="m124.58,65.44v-5.95h2.32V23.8h-2.32v-5.95h4.63v5.95h2.32v17.85h4.63v-17.85h-4.63v-5.95h6.95v5.95h2.32v17.85h-2.32v5.95h-6.95v11.9h2.32v5.95h-9.27Z"/>
      <path class="cls-1" d="m142.38,65.44v-5.95h2.32V23.8h-2.32v-5.95h4.63v5.95h2.32v17.85h4.63v-17.85h-4.63v-5.95h6.95v5.95h2.32v17.85h-2.32v5.95h-6.95v11.9h2.32v5.95h-9.27Z"/>
      <path class="cls-1" d="m164.81,53.54v-5.95h2.32v-23.79h-2.32v-5.95h6.95v29.74h2.32v5.95h-9.27Zm2.32-53.54h4.63v11.9h-4.63V0Z"/>
      <path class="cls-1" d="m177.97,23.8v-5.95h4.63v5.95h2.32v29.74h-4.63v-29.74h-2.32Zm6.95,0v-5.95h6.95v5.95h2.32v29.74h-4.63v-29.74h-4.63Z"/>
      <path class="cls-1" d="m195.77,59.49v-5.95h4.63v5.95h4.63v-11.9h-6.95v-5.95h-2.32v-17.85h2.32v-5.95h6.95v5.95h-4.63v17.85h4.63v-17.85h2.32v-5.95h4.63v5.95h-2.32v35.69h-2.32v5.95h-9.27v-5.95h-2.32Z"/>
      <path class="cls-1" d="m231.37,53.54V17.85h2.32v-5.95h2.32v-5.95h2.32V0h2.32v5.95h2.32v5.95h2.32v5.95h2.32v35.69h-4.63v-17.85h-6.95v17.85h-4.63Zm4.63-23.79h6.95v-11.9h-2.32v-5.95h-2.32v5.95h-2.32v11.9Z"/>
      <path class="cls-1" d="m249.17,47.59v-17.85h2.32v-5.95h2.32v-5.95h4.63V5.95h-2.32V0h6.95v47.59h2.32v5.95h-4.63v-5.95h-2.32v-23.79h-2.32v5.95h-2.32v17.85h4.63v5.95h-6.95v-5.95h-2.32Z"/>
      <path class="cls-1" d="m266.96,47.59v-17.85h2.32v-5.95h2.32v-5.95h4.63V5.95h-2.32V0h6.95v47.59h2.32v5.95h-4.63v-5.95h-2.32v-23.79h-2.32v5.95h-2.32v17.85h4.63v5.95h-6.95v-5.95h-2.32Z"/>
      <path class="cls-1" d="m284.76,53.54v-5.95h2.32v-23.79h-2.32v-5.95h4.63v5.95h2.32v-5.95h6.95v5.95h2.32v11.9h-4.63v-11.9h-2.32v5.95h-2.32v17.85h2.32v5.95h-9.27Z"/>
      <path class="cls-1" d="m302.56,47.59v-23.79h2.32v-5.95h11.59v5.95h2.32v11.9h-11.59v11.9h6.95v-5.95h4.63v5.95h-2.32v5.95h-11.59v-5.95h-2.32Zm4.63-17.85h6.95v-5.95h-6.95v5.95Z"/>
      <path class="cls-1" d="m320.35,47.59v-5.95h4.63v5.95h6.95v-5.95h-4.63v-5.95h-4.63v-5.95h-2.32v-5.95h2.32v-5.95h11.59v5.95h2.32v5.95h-4.63v-5.95h-6.95v5.95h4.63v5.95h4.63v5.95h2.32v5.95h-2.32v5.95h-11.59v-5.95h-2.32Z"/>
      <path class="cls-1" d="m338.15,47.59v-5.95h4.63v5.95h6.95v-5.95h-4.63v-5.95h-4.63v-5.95h-2.32v-5.95h2.32v-5.95h11.59v5.95h2.32v5.95h-4.63v-5.95h-6.95v5.95h4.63v5.95h4.63v5.95h2.32v5.95h-2.32v5.95h-11.59v-5.95h-2.32Z"/>
    </g>
    <rect class="cls-1" x="2.56" y="74.61" width="340.74" height="4"/>
    <g>
      <path class="cls-1" d="m10.44,101.35v-1.26h1.26v-8.8h-1.26v-1.26h7.54v1.26h1.26v3.77h-1.26v2.51h1.26v2.51h1.26v1.26h-3.77v-3.77h-1.26v-1.26h-1.26v5.03h-3.77Zm3.77-6.29h2.51v-3.77h-2.51v3.77Z"/>
      <path class="cls-1" d="m18.48,100.09v-6.29h2.51v6.29h2.51v1.26h-3.77v-1.26h-1.26Zm5.03,0v-6.29h2.51v6.29h1.26v1.26h-2.51v-1.26h-1.26Z"/>
      <path class="cls-1" d="m26.53,100.09v-3.77h1.26v-1.26h1.26v-1.26h2.51v-2.51h-1.26v-1.26h3.77v10.06h1.26v1.26h-2.51v-1.26h-1.26v-5.03h-1.26v1.26h-1.26v3.77h2.51v1.26h-3.77v-1.26h-1.26Z"/>
      <path class="cls-1" d="m34.57,101.35v-1.26h1.26v-8.8h-1.26v-1.26h3.77v6.29h1.26v-1.26h1.26v-1.26h2.51v1.26h-1.26v1.26h-1.26v1.26h1.26v1.26h1.26v2.51h-2.51v-2.51h-1.26v-1.26h-1.26v3.77h-3.77Z"/>
      <path class="cls-1" d="m45.13,101.35v-1.26h1.26v-5.03h-1.26v-1.26h3.77v6.29h1.26v1.26h-5.03Zm1.26-11.31h2.51v2.51h-2.51v-2.51Z"/>
      <path class="cls-1" d="m50.66,100.09v-3.77h1.26v-1.26h1.26v-1.26h2.51v-2.51h-1.26v-1.26h3.77v10.06h1.26v1.26h-2.51v-1.26h-1.26v-5.03h-1.26v1.26h-1.26v3.77h2.51v1.26h-3.77v-1.26h-1.26Z"/>
      <path class="cls-1" d="m58.71,100.09v-1.26h2.51v1.26h3.77v-1.26h-2.51v-1.26h-2.51v-1.26h-1.26v-1.26h1.26v-1.26h6.29v1.26h1.26v1.26h-2.51v-1.26h-3.77v1.26h2.51v1.26h2.51v1.26h1.26v1.26h-1.26v1.26h-6.29v-1.26h-1.26Z"/>
      <path class="cls-1" d="m69.27,95.06v-3.77h1.26v-1.26h2.51v1.26h1.26v3.77h-1.26v2.51h-2.51v-2.51h-1.26Zm1.26,6.29v-2.51h2.51v2.51h-2.51Z"/>
      <path class="cls-1" d="m84.1,88.78h2.51v1.26h-1.26v2.51h-2.51v-2.51h1.26v-1.26Zm5.03,0h2.51v1.26h-1.26v2.51h-2.51v-2.51h1.26v-1.26Z"/>
      <path class="cls-1" d="m90.89,101.35v-1.26h1.26v-8.8h-1.26v-1.26h8.8v3.77h-1.26v-1.26h-1.26v-1.26h-2.51v3.77h1.26v-1.26h1.26v3.77h-1.26v-1.26h-1.26v3.77h2.51v-1.26h1.26v-1.26h1.26v3.77h-8.8Z"/>
      <path class="cls-1" d="m98.94,100.09v-1.26h2.51v1.26h3.77v-1.26h-2.51v-1.26h-2.51v-1.26h-1.26v-1.26h1.26v-1.26h6.29v1.26h1.26v1.26h-2.51v-1.26h-3.77v1.26h2.51v1.26h2.51v1.26h1.26v1.26h-1.26v1.26h-6.29v-1.26h-1.26Z"/>
      <path class="cls-1" d="m106.98,100.09v-5.03h1.26v-1.26h6.29v1.26h1.26v1.26h-2.51v-1.26h-3.77v5.03h3.77v-1.26h2.51v1.26h-1.26v1.26h-6.29v-1.26h-1.26Z"/>
      <path class="cls-1" d="m115.03,100.09v-2.51h1.26v-1.26h3.77v-1.26h-3.77v-1.26h5.03v1.26h1.26v5.03h1.26v1.26h-2.51v-1.26h-1.26v-2.51h-2.51v2.51h2.51v1.26h-3.77v-1.26h-1.26Z"/>
      <path class="cls-1" d="m123.07,103.86v-1.26h1.26v-7.54h-1.26v-1.26h2.51v1.26h1.26v3.77h2.51v-3.77h-2.51v-1.26h3.77v1.26h1.26v3.77h-1.26v1.26h-3.77v2.51h1.26v1.26h-5.03Z"/>
      <path class="cls-1" d="m131.12,100.09v-5.03h1.26v-1.26h6.29v1.26h1.26v2.51h-6.29v2.51h3.77v-1.26h2.51v1.26h-1.26v1.26h-6.29v-1.26h-1.26Zm2.51-3.77h3.77v-1.26h-3.77v1.26Z"/>
      <path class="cls-1" d="m149.72,100.09v-3.77h-1.26v-1.26h1.26v-3.77h1.26v-1.26h3.77v1.26h1.26v2.51h-1.26v-1.26h-1.26v-1.26h-1.26v3.77h2.51v1.26h-2.51v3.77h1.26v1.26h-5.03v-1.26h1.26Z"/>
      <path class="cls-1" d="m155.25,101.35v-1.26h1.26v-5.03h-1.26v-1.26h2.51v1.26h1.26v-1.26h3.77v1.26h1.26v2.51h-2.51v-2.51h-1.26v1.26h-1.26v3.77h1.26v1.26h-5.03Z"/>
      <path class="cls-1" d="m163.3,100.09v-5.03h1.26v-1.26h6.29v1.26h1.26v5.03h-1.26v1.26h-6.29v-1.26h-1.26Zm2.51,0h3.77v-5.03h-3.77v5.03Z"/>
      <path class="cls-1" d="m171.35,101.35v-7.54h3.77v1.26h1.26v-1.26h2.51v1.26h1.26v6.29h-2.51v-5.03h-1.26v5.03h-1.26v-5.03h-1.26v5.03h-2.51Z"/>
      <path class="cls-1" d="m187.44,95.06v-1.26h2.51v-2.51h1.26v-1.26h1.26v3.77h2.51v1.26h-2.51v5.03h1.26v-1.26h2.51v1.26h-1.26v1.26h-3.77v-1.26h-1.26v-5.03h-2.51Z"/>
      <path class="cls-1" d="m195.48,101.35v-1.26h1.26v-8.8h-1.26v-1.26h3.77v5.03h1.26v1.26h-1.26v5.03h-3.77Zm5.03-6.29v-1.26h2.51v1.26h1.26v6.29h-2.51v-6.29h-1.26Z"/>
      <path class="cls-1" d="m203.53,100.09v-5.03h1.26v-1.26h6.29v1.26h1.26v2.51h-6.29v2.51h3.77v-1.26h2.51v1.26h-1.26v1.26h-6.29v-1.26h-1.26Zm2.51-3.77h3.77v-1.26h-3.77v1.26Z"/>
      <path class="cls-1" d="m219.62,100.09v-2.51h1.26v-1.26h3.77v-1.26h-3.77v-1.26h5.03v1.26h1.26v5.03h1.26v1.26h-2.51v-1.26h-1.26v-2.51h-2.51v2.51h2.51v1.26h-3.77v-1.26h-1.26Z"/>
      <path class="cls-1" d="m227.66,100.09v-3.77h1.26v-1.26h1.26v-1.26h2.51v-2.51h-1.26v-1.26h3.77v10.06h1.26v1.26h-2.51v-1.26h-1.26v-5.03h-1.26v1.26h-1.26v3.77h2.51v1.26h-3.77v-1.26h-1.26Z"/>
      <path class="cls-1" d="m235.71,100.09v-6.29h2.51v6.29h2.51v1.26h-3.77v-1.26h-1.26Zm5.03,0v-6.29h2.51v6.29h1.26v1.26h-2.51v-1.26h-1.26Z"/>
      <path class="cls-1" d="m250.04,100.09h1.26v1.26h-5.03v-1.26h1.26v-8.8h-1.26v-1.26h3.77v10.06Z"/>
      <path class="cls-1" d="m251.8,95.06v-1.26h2.51v-2.51h1.26v-1.26h1.26v3.77h2.51v1.26h-2.51v5.03h1.26v-1.26h2.51v1.26h-1.26v1.26h-3.77v-1.26h-1.26v-5.03h-2.51Z"/>
      <path class="cls-1" d="m259.85,100.09v-1.26h2.51v1.26h3.77v-1.26h-2.51v-1.26h-2.51v-1.26h-1.26v-1.26h1.26v-1.26h6.29v1.26h1.26v1.26h-2.51v-1.26h-3.77v1.26h2.51v1.26h2.51v1.26h1.26v1.26h-1.26v1.26h-6.29v-1.26h-1.26Z"/>
      <path class="cls-1" d="m274.18,88.78v2.51h-1.26v1.26h-2.51v-1.26h1.26v-2.51h2.51Z"/>
      <path class="cls-1" d="m283.98,100.09v-6.29h2.51v5.03h1.26v-2.51h1.26v2.51h1.26v-5.03h2.51v6.29h-1.26v1.26h-2.51v-1.26h-1.26v1.26h-2.51v-1.26h-1.26Z"/>
      <path class="cls-1" d="m292.03,100.09v-5.03h1.26v-1.26h6.29v1.26h1.26v5.03h-1.26v1.26h-6.29v-1.26h-1.26Zm2.51,0h3.77v-5.03h-3.77v5.03Z"/>
      <path class="cls-1" d="m300.07,101.35v-1.26h1.26v-5.03h-1.26v-1.26h2.51v1.26h1.26v-1.26h3.77v1.26h1.26v2.51h-2.51v-2.51h-1.26v1.26h-1.26v3.77h1.26v1.26h-5.03Z"/>
      <path class="cls-1" d="m314.4,100.09h1.26v1.26h-5.03v-1.26h1.26v-8.8h-1.26v-1.26h3.77v10.06Z"/>
      <path class="cls-1" d="m316.16,100.09v-3.77h1.26v-1.26h1.26v-1.26h2.51v-2.51h-1.26v-1.26h3.77v10.06h1.26v1.26h-2.51v-1.26h-1.26v-5.03h-1.26v1.26h-1.26v3.77h2.51v1.26h-3.77v-1.26h-1.26Z"/>
      <path class="cls-1" d="m326.72,95.06v-3.77h1.26v-1.26h2.51v1.26h1.26v3.77h-1.26v2.51h-2.51v-2.51h-1.26Zm1.26,6.29v-2.51h2.51v2.51h-2.51Z"/>
      <path class="cls-1" d="m333.51,88.78h2.51v2.51h-1.26v1.26h-2.51v-1.26h1.26v-2.51Zm5.03,0h2.51v2.51h-1.26v1.26h-2.51v-1.26h1.26v-2.51Z"/>
    </g>
    <g>
      <path class="cls-1" d="m30.93,113.25v-2.51h2.51v2.51h3.77v-2.51h-1.26v-1.26h-2.51v-1.26h-1.26v-1.26h-1.26v-2.51h1.26v-1.26h6.29v1.26h1.26v2.51h-2.51v-2.51h-3.77v2.51h1.26v1.26h2.51v1.26h1.26v1.26h1.26v2.51h-1.26v1.26h-6.29v-1.26h-1.26Z"/>
      <path class="cls-1" d="m41.49,114.51v-1.26h1.26v-5.03h-1.26v-1.26h3.77v6.29h1.26v1.26h-5.03Zm1.26-11.31h2.51v2.51h-2.51v-2.51Z"/>
      <path class="cls-1" d="m47.02,108.22v-1.26h2.51v1.26h1.26v6.29h-2.51v-6.29h-1.26Zm3.77,0v-1.26h3.77v1.26h1.26v6.29h-2.51v-6.29h-2.51Z"/>
      <path class="cls-1" d="m55.06,113.25v-5.03h1.26v-1.26h6.29v1.26h1.26v1.26h-2.51v-1.26h-3.77v5.03h3.77v-1.26h2.51v1.26h-1.26v1.26h-6.29v-1.26h-1.26Z"/>
      <path class="cls-1" d="m63.11,113.25v-5.03h1.26v-1.26h6.29v1.26h1.26v2.51h-6.29v2.51h3.77v-1.26h2.51v1.26h-1.26v1.26h-6.29v-1.26h-1.26Zm2.51-3.77h3.77v-1.26h-3.77v1.26Z"/>
      <path class="cls-1" d="m79.2,114.51v-2.51h1.26v-1.26h1.26v-1.26h1.26v-1.26h1.26v-1.26h1.26v-2.51h-3.77v1.26h-2.51v-1.26h1.26v-1.26h6.29v1.26h1.26v2.51h-1.26v1.26h-1.26v1.26h-1.26v1.26h-1.26v1.26h-1.26v1.26h3.77v-1.26h2.51v2.51h-8.8Z"/>
      <path class="cls-1" d="m87.25,113.25v-8.8h1.26v-1.26h6.29v1.26h1.26v8.8h-1.26v1.26h-6.29v-1.26h-1.26Zm2.51-5.03h1.26v-1.26h1.26v-1.26h1.26v-1.26h-3.77v3.77Zm0,5.03h3.77v-5.03h-1.26v1.26h-1.26v1.26h-1.26v2.51Z"/>
      <path class="cls-1" d="m95.29,114.51v-2.51h1.26v-1.26h1.26v-1.26h1.26v-1.26h1.26v-1.26h1.26v-2.51h-3.77v1.26h-2.51v-1.26h1.26v-1.26h6.29v1.26h1.26v2.51h-1.26v1.26h-1.26v1.26h-1.26v1.26h-1.26v1.26h-1.26v1.26h3.77v-1.26h2.51v2.51h-8.8Z"/>
      <path class="cls-1" d="m103.34,113.25v-1.26h2.51v1.26h3.77v-3.77h-3.77v-1.26h3.77v-3.77h-3.77v1.26h-2.51v-1.26h1.26v-1.26h6.29v1.26h1.26v3.77h-1.26v1.26h1.26v3.77h-1.26v1.26h-6.29v-1.26h-1.26Z"/>
      <path class="cls-1" d="m119.43,114.51v-11.31h2.51v7.54h1.26v-1.26h1.26v1.26h1.26v-7.54h2.51v11.31h-2.51v-1.26h-1.26v-1.26h-1.26v1.26h-1.26v1.26h-2.51Z"/>
      <path class="cls-1" d="m127.47,113.25v-5.03h1.26v-1.26h6.29v1.26h1.26v2.51h-6.29v2.51h3.77v-1.26h2.51v1.26h-1.26v1.26h-6.29v-1.26h-1.26Zm2.51-3.77h3.77v-1.26h-3.77v1.26Z"/>
      <path class="cls-1" d="m143.56,113.25v-2.51h1.26v-1.26h3.77v-1.26h-3.77v-1.26h5.03v1.26h1.26v5.03h1.26v1.26h-2.51v-1.26h-1.26v-2.51h-2.51v2.51h2.51v1.26h-3.77v-1.26h-1.26Z"/>
      <path class="cls-1" d="m151.61,114.51v-1.26h1.26v-5.03h-1.26v-1.26h2.51v1.26h1.26v-1.26h3.77v1.26h1.26v2.51h-2.51v-2.51h-1.26v1.26h-1.26v3.77h1.26v1.26h-5.03Z"/>
      <path class="cls-1" d="m159.65,113.25v-5.03h1.26v-1.26h6.29v1.26h1.26v2.51h-6.29v2.51h3.77v-1.26h2.51v1.26h-1.26v1.26h-6.29v-1.26h-1.26Zm2.51-3.77h3.77v-1.26h-3.77v1.26Z"/>
      <path class="cls-1" d="m175.75,111.99v-5.03h2.51v5.03h3.77v-5.03h2.51v7.54h-1.26v1.26h-1.26v1.26h-5.03v-1.26h3.77v-1.26h1.26v-1.26h-5.03v-1.26h-1.26Z"/>
      <path class="cls-1" d="m183.79,113.25v-5.03h1.26v-1.26h6.29v1.26h1.26v5.03h-1.26v1.26h-6.29v-1.26h-1.26Zm2.51,0h3.77v-5.03h-3.77v5.03Z"/>
      <path class="cls-1" d="m191.84,113.25v-6.29h2.51v6.29h2.51v1.26h-3.77v-1.26h-1.26Zm5.03,0v-6.29h2.51v6.29h1.26v1.26h-2.51v-1.26h-1.26Z"/>
      <path class="cls-1" d="m199.88,114.51v-1.26h1.26v-5.03h-1.26v-1.26h2.51v1.26h1.26v-1.26h3.77v1.26h1.26v2.51h-2.51v-2.51h-1.26v1.26h-1.26v3.77h1.26v1.26h-5.03Z"/>
      <path class="cls-1" d="m215.97,113.25v-5.03h1.26v-1.26h6.29v1.26h1.26v5.03h-1.26v1.26h-6.29v-1.26h-1.26Zm2.51,0h3.77v-5.03h-3.77v5.03Z"/>
      <path class="cls-1" d="m224.02,113.25v-6.29h2.51v5.03h1.26v-2.51h1.26v2.51h1.26v-5.03h2.51v6.29h-1.26v1.26h-2.51v-1.26h-1.26v1.26h-2.51v-1.26h-1.26Z"/>
      <path class="cls-1" d="m232.06,108.22v-1.26h2.51v1.26h1.26v6.29h-2.51v-6.29h-1.26Zm3.77,0v-1.26h3.77v1.26h1.26v6.29h-2.51v-6.29h-2.51Z"/>
      <path class="cls-1" d="m248.15,117.02v-1.26h1.26v-7.54h-1.26v-1.26h2.51v1.26h1.26v3.77h2.51v-3.77h-2.51v-1.26h3.77v1.26h1.26v3.77h-1.26v1.26h-3.77v2.51h1.26v1.26h-5.03Z"/>
      <path class="cls-1" d="m262.48,113.25h1.26v1.26h-5.03v-1.26h1.26v-8.8h-1.26v-1.26h3.77v10.06Z"/>
      <path class="cls-1" d="m264.24,113.25v-5.03h1.26v-1.26h6.29v1.26h1.26v2.51h-6.29v2.51h3.77v-1.26h2.51v1.26h-1.26v1.26h-6.29v-1.26h-1.26Zm2.51-3.77h3.77v-1.26h-3.77v1.26Z"/>
      <path class="cls-1" d="m272.29,113.25v-2.51h1.26v-1.26h3.77v-1.26h-3.77v-1.26h5.03v1.26h1.26v5.03h1.26v1.26h-2.51v-1.26h-1.26v-2.51h-2.51v2.51h2.51v1.26h-3.77v-1.26h-1.26Z"/>
      <path class="cls-1" d="m280.34,113.25v-1.26h2.51v1.26h3.77v-1.26h-2.51v-1.26h-2.51v-1.26h-1.26v-1.26h1.26v-1.26h6.29v1.26h1.26v1.26h-2.51v-1.26h-3.77v1.26h2.51v1.26h2.51v1.26h1.26v1.26h-1.26v1.26h-6.29v-1.26h-1.26Z"/>
      <path class="cls-1" d="m288.38,113.25v-6.29h2.51v6.29h2.51v1.26h-3.77v-1.26h-1.26Zm5.03,0v-6.29h2.51v6.29h1.26v1.26h-2.51v-1.26h-1.26Z"/>
      <path class="cls-1" d="m296.43,114.51v-1.26h1.26v-5.03h-1.26v-1.26h2.51v1.26h1.26v-1.26h3.77v1.26h1.26v2.51h-2.51v-2.51h-1.26v1.26h-1.26v3.77h1.26v1.26h-5.03Z"/>
      <path class="cls-1" d="m304.47,113.25v-5.03h1.26v-1.26h6.29v1.26h1.26v2.51h-6.29v2.51h3.77v-1.26h2.51v1.26h-1.26v1.26h-6.29v-1.26h-1.26Zm2.51-3.77h3.77v-1.26h-3.77v1.26Z"/>
      <path class="cls-1" d="m318.8,114.51v2.51h-2.51v-2.51h2.51Z"/>
    </g>
  </g>
</svg>